<svg aria-hidden="true" data-file-name="logo-ceppic.svg" xmlns="http://www.w3.org/2000/svg" width="115" height="88" viewBox="0 0 2367.27 1820.56"><defs><style>.cls-3{fill:#ffffff}</style></defs><path d="m1453.93 787.19-145.2 145.71-105.65-105.58-151.73 152L1157.07 1085l-145.27 145.7-160.07-159.93a129.22 129.22 0 0 1-.15-182.64l260.07-260.36c50.36-50.5 132.14-50.5 182.64-.14Z" transform="translate(-316.36 -589.65)" fill="#2dc434"/><path d="m1111.77 1330.61-54.21-54.13 647-648.94a129.13 129.13 0 0 1 182.65-.11L2148 887.93a129.14 129.14 0 0 1 .12 182.62l-259 259.37a129.14 129.14 0 0 1-182.66.11L1546 1169.71l145.39-145.58 106.25 106.23 150.76-151L1796 827.11l-501.61 503.37a129.15 129.15 0 0 1-182.62.13Z" transform="translate(-316.36 -589.65)" fill="#39a6ff"/><path class="cls-3" d="M316.36 1816.62c0-121.56 93.29-206.93 220.5-206.93 77.46 0 138.53 28.26 177.54 79.15L630.16 1764c-23.18-29.4-50.89-46.36-86.51-46.36-55.41 0-92.72 38.44-92.72 98.94s37.31 99 92.72 99c35.62 0 63.33-17 86.51-46.37l84.24 75.2c-39 50.89-100.08 79.16-177.54 79.16-127.21-.01-220.5-85.39-220.5-206.95ZM1110.17 1913.87v100.64H781.11v-395.78h321.7v100.64H912.28v46.37h167.35v96.11H912.28v52ZM1560.77 1768c0 91.59-70.1 149.26-180.36 149.26h-57.1v97.25h-133.43v-395.78h190.53c110.26 0 180.36 57.67 180.36 149.27Zm-134.56 0c0-28.84-17.53-46.37-54.28-46.37h-48.62v92.73h48.62c36.75 0 54.28-17.53 54.28-46.36ZM2003.48 1768c0 91.59-70.11 149.26-180.36 149.26H1766v97.25h-133.42v-395.78h190.54c110.25 0 180.36 57.67 180.36 149.27Zm-134.57 0c0-28.84-17.53-46.37-54.28-46.37H1766v92.73h48.62c36.76 0 54.29-17.53 54.29-46.36ZM2075.28 1618.73h133.43v395.78h-133.43ZM2285.6 1816.62c0-121.56 93.29-206.93 220.5-206.93 77.46 0 138.52 28.26 177.54 79.15l-84.25 75.2c-23.18-29.4-50.88-46.36-86.5-46.36-55.41 0-92.73 38.44-92.73 98.94s37.32 99 92.73 99c35.62 0 63.32-17 86.5-46.37l84.25 75.2c-39 50.89-100.08 79.16-177.54 79.16-127.21-.05-220.5-85.43-220.5-206.99Z" transform="translate(-316.36 -589.65)"/><path class="cls-3" d="M0 1550.03h2367.27v11.58H0z"/><path class="cls-3" d="M810.45 2305.05v28.87h57.92v28.68h-57.92v45h-37.12v-131.23h102.92v28.68ZM913.72 2342c0-39.37 30.93-68.23 72.92-68.23s72.92 28.86 72.92 68.23-30.93 68.23-72.92 68.23-72.92-28.88-72.92-68.23Zm108.35 0c0-22.68-15.56-37.49-35.43-37.49s-35.43 14.81-35.43 37.49 15.56 37.49 35.43 37.49 35.43-14.83 35.43-37.49ZM1164.32 2372.72h-20.24v34.87H1107v-131.22h60c35.81 0 58.3 18.56 58.3 48.55 0 19.31-9.37 33.56-25.68 41.43l28.31 41.24h-39.74Zm.38-67.11h-20.62V2344h20.62c15.37 0 23-7.13 23-19.12.05-12.14-7.63-19.27-23-19.27ZM1392.06 2407.59l-.38-69.55-33.74 56.61h-16.5l-33.55-54.73v67.67h-34.31v-131.22h30.56l46.11 75.73 45-75.73h30.56l.37 131.22ZM1568.23 2382.1h-55.48l-10.31 25.49h-37.87l57.93-131.22h36.55l58.11 131.22h-38.62Zm-10.87-27.38-16.87-42-16.87 42ZM1676.94 2305.8h-40.3v-29.43h117.53v29.43h-40.11v101.79h-37.12ZM1796 2276.37h37.12v131.22H1796ZM1880.67 2342c0-39.37 30.93-68.23 72.92-68.23s72.92 28.86 72.92 68.23-30.93 68.23-72.92 68.23-72.92-28.88-72.92-68.23Zm108.35 0c0-22.68-15.56-37.49-35.43-37.49s-35.43 14.81-35.43 37.49 15.56 37.49 35.43 37.49S1989 2364.66 1989 2342ZM2198.76 2276.37v131.22h-30.56l-57.92-69.92v69.92h-36.37v-131.22h30.56l57.92 69.92v-69.92Z" transform="translate(-316.36 -589.65)"/></svg>